<svg xmlns:dc="http://purl.org/dc/elements/1.1/" xmlns:cc="http://creativecommons.org/ns#" xmlns:rdf="http://www.w3.org/1999/02/22-rdf-syntax-ns#" xmlns:svg="http://www.w3.org/2000/svg" xmlns="http://www.w3.org/2000/svg" id="svg4" xml:space="preserve" enable-background="new 0 0 200 200" y="0px" x="0px" version="1.1" viewBox="40 51.18 120.02 97.63"><metadata id="metadata10"><rdf:RDF><cc:Work rdf:about=""><dc:format>image/svg+xml</dc:format><dc:type rdf:resource="http://purl.org/dc/dcmitype/StillImage"/></cc:Work></rdf:RDF></metadata><defs id="defs8"/>
    <style>
      path {
        fill: black;
        }
      @media (prefers-color-scheme: dark) {
        path {
        fill: white;
        }
      }
     </style>
     <path id="path2" d="m156.5 51.184c-0.0344 0.0021-10.941 1.2261-24.238 2.7188-13.297 1.493-24.208 2.7154-24.244 2.7168l-0.0664 0.0021 0.0586 0.03516c0.032 0.01835 0.0766 0.02878 0.0996 0.02344 0.0231-0.0053 0.0941 0.02974 0.1582 0.07812 0.0644 0.04872 1.5075 1.0041 3.2051 2.123 1.6979 1.1186 8.1596 5.3781 14.361 9.4648 6.2012 4.0869 11.279 7.4273 11.283 7.4219 0.005-0.005 4.3679-5.5218 9.6953-12.258l9.7188-12.289c0.0244-0.03037 0.0164-0.03978-0.0293-0.03711zm-50.236 7.8613c0.008 0.02036 3.5801 8.3577 7.9394 18.527 4.3589 10.17 7.9368 18.487 7.9512 18.482 0.0147-0.005 3.043-4.1002 6.7305-9.1016 5.1378-6.9694 6.6941-9.1009 6.6641-9.1309-0.0217-0.02134-5.2039-3.3551-11.518-7.4063-6.314-4.0509-12.862-8.25-14.551-9.334-1.6886-1.0832-3.106-1.9928-3.1504-2.0215-0.044-0.02836-0.0738-0.03599-0.0664-0.01562zm-1.7559 1.4844c-0.006-0.0063-0.0686 0.06696-0.13868 0.16406-0.066 0.09723-3.3848 4.7357-7.373 10.307-3.9865 5.5716-7.248 10.137-7.248 10.146 0.000294 0.009 2.3365 1.2786 5.1934 2.8203 2.8568 1.5417 6.1411 3.3161 7.2988 3.9414 1.1576 0.62534 5.4092 2.9201 9.4473 5.1016 4.0378 2.1811 7.5728 4.0913 7.8555 4.2441 0.28299 0.15284 0.55071 0.27734 0.59375 0.27734 0.0427 0 0.0762-0.01263 0.0762-0.02931 0-0.01669-3.5303-8.3403-7.8457-18.496-4.3148-10.156-7.8495-18.471-7.8555-18.477zm41.215 8.4375c-0.0477 0.0021-3.4085 4.2598-11.873 15.043-6.4881 8.2724-11.871 15.13-11.961 15.24l-0.15821 0.20117 0.16602-0.11914c0.0918-0.06574 5.085-3.7676 11.096-8.2266 6.0109-4.4586 11.211-8.3179 11.557-8.5742 0.34572-0.25629 1.0452-0.77524 1.5527-1.1523 0.50756-0.37708 3.8571-2.8599 7.4434-5.5195 5.1774-3.8393 6.5074-4.8416 6.457-4.8613-0.0347-0.01369-3.2459-0.47704-7.1367-1.0293-3.891-0.55228-7.104-1.0013-7.1406-1zm-87.25 9.9102v0.0021h-0.06641l0.05859 0.11133c0.03237 0.06174 2.9727 5.0313 6.5332 11.045 3.5603 6.0133 6.4835 10.934 6.4961 10.928s3.0286-4.1094 6.7012-9.1191c3.672-5.0092 6.6648-9.1183 6.6504-9.1309-0.01381-0.0126-1.8644-0.28993-4.1133-0.61524-2.2483-0.3259-4.8978-0.70947-5.8887-0.85351-0.99152-0.14344-5.0664-0.73527-9.0547-1.3145-3.9883-0.57859-7.2804-1.0527-7.3164-1.0527zm-2.5859 1.3145c-0.01769-0.005-0.34698 0.29969-0.73242 0.67578-0.38543 0.37642-3.9551 3.8331-7.9316 7.6816-3.978 3.851-7.225 7.004-7.22 7.01 0.0059 0.006 4.6712-1.4466 10.367-3.2285 5.6958-1.7826 10.435-3.267 10.531-3.2988l0.17578-0.05664-2.5801-4.3848c-1.4183-2.4123-2.5937-4.3898-2.6113-4.3945zm32.365 3.3594c-0.01467 0-3.0396 4.1018-6.7227 9.1172l-6.6973 9.1191 0.22266 0.01c0.12214 0.005 4.8704-0.19413 10.551-0.44141 5.6807-0.24727 15.434-0.66949 21.674-0.93945 6.2402-0.26997 11.357-0.50134 11.371-0.51368 0.0144-0.01236-0.36078-0.23042-0.83398-0.48437s-1.8426-0.98908-3.0449-1.6348c-1.202-0.64575-7.6555-4.1122-14.34-7.7031-6.6819-3.5912-12.163-6.5295-12.178-6.5295zm30.357 18.861c-0.0274 0.00059-9.8354 0.42607-21.793 0.94531-11.958 0.51959-21.801 0.94908-21.877 0.95508l-0.13672 0.0117 1.7637 3.1367c1.5864 2.8194 1.7727 3.1354 1.8398 3.125 0.04105-0.006 5.4805-1.1084 12.088-2.4473 6.6075-1.3385 12.531-2.5375 13.164-2.666 0.63338-0.12881 1.2946-0.26413 1.4688-0.29883 0.17453-0.0347 3.2518-0.65634 6.8398-1.3828 3.5884-0.72618 6.5638-1.3352 6.6094-1.3516 0.046-0.0167 0.0606-0.028 0.0332-0.0273zm0.73828 2.7656c-0.03 0.002-8.9897 1.8173-19.91 4.0352-10.92 2.2178-19.981 4.0578-20.135 4.0898-0.16619 0.0344-0.26141 0.0674-0.23438 0.082 0.02502 0.0137 6.0384 2.3035 13.361 5.0879 7.3229 2.7845 13.378 5.089 13.457 5.123 0.0784 0.034 1.3328 0.77041 2.7871 1.6367 1.4543 0.86632 2.654 1.5856 2.668 1.5977 0.0143 0.0124-0.35763 1.0572-0.82617 2.3223l-0.85156 2.3008 0.39257 0.38868c0.21592 0.2139 4.2339 4.123 8.9297 8.6875 4.6956 4.5644 8.5434 8.2931 8.5488 8.2871 0.005-0.006-0.56739-3.0892-1.2715-6.8516-0.70415-3.7625-1.2872-6.8746-1.2969-6.916-0.01-0.0414-0.008-0.0742 0.006-0.0742 0.014 0.0003 1.5216 0.89218 3.3477 1.9824 1.8264 1.0899 3.3257 1.9771 3.332 1.9707 0.006-0.006-2.6958-7.4803-6.0039-16.607-3.308-9.1277-6.0287-16.632-6.0449-16.676-0.0227-0.0614-0.0386-0.0707-0.0684-0.041-0.0214 0.0214-0.0482 0.0371-0.0606 0.0371-0.0126 0-0.0354-0.0859-0.0508-0.1914-0.015-0.10545-0.0274-0.2094-0.0254-0.23242 0.002-0.0231-0.0208-0.0405-0.0508-0.0391z"/>
     </svg>